<?xml version="1.0" encoding="utf-8"?>
<!-- Generator: Adobe Illustrator 23.0.3, SVG Export Plug-In . SVG Version: 6.00 Build 0)  -->
<svg version="1.1" id="Layer_1" xmlns="http://www.w3.org/2000/svg" xmlns:xlink="http://www.w3.org/1999/xlink" x="0px" y="0px"
	 viewBox="0 0 497.9 497.9" style="enable-background:new 0 0 497.9 497.9;" xml:space="preserve">
<path d="M53,497.9c-29.2,0-53-23.8-53-53V53C0,23.8,23.8,0,53,0h391.9c29.2,0,53,23.8,53,53v205.9c0,7.2-5.8,13-13,13s-13-5.8-13-13
	V53c0-14.9-12.1-27-27-27H53c-14.9,0-27,12.1-27,27v391.9c0,14.9,12.1,27,27,27h210.9c7.2,0,13,5.8,13,13s-5.8,13-13,13H53z
	 M476.7,489.7c-3.5,0-6.7-1.4-9.2-3.8L438,456.4l-4.7,2.8c-12.8,7.6-27.5,11.7-42.4,11.7c-1.2,0-2.5,0-3.7-0.1
	c-42.4-1.9-77.2-36.6-79.1-79c-1.1-22.9,7.1-44.6,22.9-61.2c15.8-16.6,37.1-25.7,60-25.7c1.3,0,2.6,0,3.9,0.1
	c42.4,1.9,77.1,36.7,79,79.1c0.8,17.7-4,34.9-13.7,49.6l-3.2,4.8l29.1,29.1c2.5,2.5,3.8,5.7,3.8,9.2s-1.4,6.7-3.8,9.2
	C483.5,488.4,480.2,489.7,476.7,489.7z M390.9,330.9c-31.4,0-57,25.6-57,57c0,31.4,25.6,57,57,57c31.4,0,57-25.6,57-57
	C447.9,356.5,422.3,330.9,390.9,330.9z M118,390.9c-9.9,0-18-8.1-18-18s8.1-18,18-18s18,8.1,18,18S127.9,390.9,118,390.9z
	 M212.9,385.9c-7.2,0-13-5.8-13-13s5.8-13,13-13h28c7.2,0,13,5.8,13,13s-5.8,13-13,13H212.9z M118,263.9c-9.9,0-18-8.1-18-18
	c0-9.9,8.1-18,18-18s18,8.1,18,18C136,255.9,127.9,263.9,118,263.9z M212.9,258.9c-7.2,0-13-5.8-13-13c0-7.2,5.8-13,13-13h162
	c7.2,0,13,5.8,13,13c0,7.2-5.8,13-13,13H212.9z M118,144c-9.9,0-18-8.1-18-18c0-9.9,8.1-18,18-18s18,8.1,18,18
	C136,135.9,127.9,144,118,144z M212.9,139c-7.2,0-13-5.8-13-13s5.8-13,13-13h162c7.2,0,13,5.8,13,13s-5.8,13-13,13H212.9z"/>
</svg>
