<?xml version="1.0" encoding="utf-8"?>
<!-- Generator: Adobe Illustrator 23.0.3, SVG Export Plug-In . SVG Version: 6.00 Build 0)  -->
<svg version="1.1" id="Capa_1" xmlns="http://www.w3.org/2000/svg" xmlns:xlink="http://www.w3.org/1999/xlink" x="0px" y="0px"
	 viewBox="0 0 784.7 536.6" style="enable-background:new 0 0 784.7 536.6;" xml:space="preserve">
<g>
	<path d="M280.8,301.2c83.3,0,150.8-67.5,150.8-150.8C431.6,67.1,364,0,280.8,0S130,67.5,130,150.4
		C130,233.2,197.5,301.2,280.8,301.2z M280.8,39.3c61.1,0,111,50,111,111c0,61.1-50,111-111,111s-111-50-111-111
		C169.8,89.3,219.7,39.3,280.8,39.3z"/>
	<path d="M374.2,327.5h-185C85.1,327.5,0,412.2,0,516.7c0,11.1,8.8,19.9,19.9,19.9h523.6c11.1,0,19.9-8.8,19.9-19.9
		C563.4,412.6,478.8,327.5,374.2,327.5z M41.2,496.8c9.7-72.6,72.2-129.5,148-129.5h185c75.9,0,138.3,56.4,148,129.5H41.2z"/>
	<path d="M562.7,305.6c65.4,0,118.5-53.1,118.5-118.5c0-65.4-53-118.1-118.5-118.1c-65.4,0-118.5,53-118.5,118.1
		S497.3,305.6,562.7,305.6z M562.7,99.9c48,0,87.2,39.3,87.2,87.2c0,48-39.2,87.2-87.2,87.2c-48,0-87.2-39.2-87.2-87.2
		C475.5,139.1,514.7,99.9,562.7,99.9z"/>
	<path d="M636.1,326.3H490.8c-11.6,0-22.8,1.3-33.7,3.9c16.2,7.2,31.2,16.4,44.9,27.4h134.1c59.6,0,108.7,44.3,116.3,101.7H570.2
		c3,10.1,5.2,20.6,6.6,31.3h192.3c8.7,0,15.6-6.9,15.6-15.6C784.7,393.1,718.2,326.3,636.1,326.3z"/>
</g>
</svg>
